<svg id="SvgjsSvg1001" width="288" height="288" xmlns="http://www.w3.org/2000/svg" version="1.1" xmlns:xlink="http://www.w3.org/1999/xlink" xmlns:svgjs="http://svgjs.com/svgjs"><defs id="SvgjsDefs1002"></defs><g id="SvgjsG1008"><svg xmlns="http://www.w3.org/2000/svg" viewBox="0 0 24 24" width="288" height="288"><path fill="#6c0ed2" d="M15.707 13.293a1 1 0 0 0-1.414 0L13 14.586V3a1 1 0 0 0-2 0v11.586l-1.293-1.293a1 1 0 0 0-1.414 1.414l3 3a1 1 0 0 0 1.414 0l3-3a1 1 0 0 0 0-1.414Z" class="svgShape color6563ff-0 selectable"></path><path fill="#c4abd8" d="M18 9h-5v5.586l1.293-1.293a1 1 0 0 1 1.414 1.414l-3 3a1 1 0 0 1-1.414 0l-3-3a1 1 0 0 1 1.414-1.414L11 14.586V9H6a3.003 3.003 0 0 0-3 3v7a3.003 3.003 0 0 0 3 3h12a3.003 3.003 0 0 0 3-3v-7a3.003 3.003 0 0 0-3-3Z" class="svgShape colorb2b1ff-1 selectable"></path></svg></g></svg>